<?xml version="1.0" encoding="utf-8"?>
<!-- Generator: Adobe Illustrator 19.0.0, SVG Export Plug-In . SVG Version: 6.00 Build 0)  -->
<svg version="1.1" id="Layer_1" xmlns="http://www.w3.org/2000/svg" xmlns:xlink="http://www.w3.org/1999/xlink" x="0px" y="0px"
	 viewBox="0 0 100 100" style="enable-background:new 0 0 100 100;" xml:space="preserve">
<style type="text/css">
	.st0{fill:#FFFFFF;}
</style>
<path id="XMLID_105_" class="st0" d="M77.7,4.7H28.9c-5.5,0-10,4.5-10,10v6.3c0,5.5,4.5,10,10,10h0.5v9.3c0,3.8-1.5,7.4-4.2,10.1
	L18.5,57c-5.6,5.6-5.6,14.6,0,20.2l13.3,13.3c5.6,5.6,14.6,5.6,20.2,0l20.6-20.6c2.7-2.7,4.2-6.3,4.2-10.1l0-28.9h0.9
	c5.5,0,10-4.5,10-10v-6.3C87.7,9.1,83.2,4.7,77.7,4.7z M51.3,67c-0.5,0.5-1.3,0.5-1.9,0c-4.3-4.2-16.2-12.3-12.7-19.5
	c1.7-3.6,5.6-5.3,9.4-4c1.4,0.5,2.5,1.3,3.3,2.2c0.5,0.6,1.5,0.6,2,0c1.1-1.3,3.1-2.6,6.1-2.6c2.6,0,4.9,1.3,6.2,3.5
	C68.5,54.6,55.6,62.4,51.3,67z M81.9,20.9c0,2.3-1.9,4.2-4.2,4.2H28.9c-2.3,0-4.2-1.9-4.2-4.2v-6.3c0-2.3,1.9-4.2,4.2-4.2h48.8
	c2.3,0,4.2,1.9,4.2,4.2V20.9z"/>
</svg>
